<?xml version="1.0" encoding="UTF-8" standalone="no"?>
<svg
   xmlns:dc="http://purl.org/dc/elements/1.1/"
   xmlns:cc="http://creativecommons.org/ns#"
   xmlns:rdf="http://www.w3.org/1999/02/22-rdf-syntax-ns#"
   xmlns:svg="http://www.w3.org/2000/svg"
   xmlns="http://www.w3.org/2000/svg"
   xmlns:sodipodi="http://sodipodi.sourceforge.net/DTD/sodipodi-0.dtd"
   xmlns:inkscape="http://www.inkscape.org/namespaces/inkscape"
   id="c72112bd-cef0-4aa6-b30b-883a11ec0291"
   data-name="图层 1"
   width="194.88"
   height="48.43"
   viewBox="0 0 194.88 48.43"
   version="1.1"
   sodipodi:docname="logo_new.svg"
   inkscape:version="0.92.3 (2405546, 2018-03-11)">
  <metadata
     id="metadata69">
    <rdf:RDF>
      <cc:Work
         rdf:about="">
        <dc:format>image/svg+xml</dc:format>
        <dc:type
           rdf:resource="http://purl.org/dc/dcmitype/StillImage" />
        <dc:title>cpchain_logo</dc:title>
      </cc:Work>
    </rdf:RDF>
  </metadata>
  <defs
     id="defs67" />
  <sodipodi:namedview
     pagecolor="#ffffff"
     bordercolor="#666666"
     borderopacity="1"
     objecttolerance="10"
     gridtolerance="10"
     guidetolerance="10"
     inkscape:pageopacity="0"
     inkscape:pageshadow="2"
     inkscape:window-width="1920"
     inkscape:window-height="1001"
     id="namedview65"
     showgrid="false"
     inkscape:zoom="6.9581279"
     inkscape:cx="26.753876"
     inkscape:cy="40.326771"
     inkscape:window-x="-9"
     inkscape:window-y="-9"
     inkscape:window-maximized="1"
     inkscape:current-layer="c72112bd-cef0-4aa6-b30b-883a11ec0291" />
  <title
     id="title2">cpchain_logo</title>
  <path
     d="M75.26,129.32A22.24,22.24,0,1,1,94,95.15,24.22,24.22,0,1,0,94,119,22.22,22.22,0,0,1,75.26,129.32Z"
     id="path54"
     transform="translate(-48.73 -82.87)"
     fill="#008ccf" />
  <polygon
     points="26.4 5.57 16.76 15.09 24.67 11.42 42.21 24.02 26.4 5.57"
     fill="#b5b6b6"
     id="polygon56" />
  <polygon
     points="33.57 11.79 35.75 9.78 44.36 19.78 33.57 11.79"
     fill="#b5b6b6"
     id="polygon58" />
  <path
     d="M71,105.7s1.26.14,3.81-1.48a8.89,8.89,0,0,1,4.39-1.34c.69,0,1.4.12,2.94,1.4.08.07-3.07-.54-3.93,2a5.44,5.44,0,0,0,3,6.38,12,12,0,0,0,8.48.16,15.34,15.34,0,0,0,4.24-2.29c.41-.34-1,4.34-3.73,5.07s-14.7,1-14.7,1L71,112.8l-.8-5.83Z"
     transform="translate(-48.73 -82.87)"
     fill="#125083"
     id="path60" />
  <path
     d="M61.3,93.22s-3.87,7.41.54,9.39c1.15.62,2.76.49,5-.86.74-.45,4-2.72,5.77-2.84a5.18,5.18,0,0,1,4.69,1.44c0,.12-3.5-.91-5.68,3.25-.45.91-2.18,7.54,4,10.83a15.21,15.21,0,0,0,11.16.91,17.69,17.69,0,0,0,6.34-4.08,24.08,24.08,0,0,0,2.31-2.31c0-.21-.21,5.89-5.6,11.94-.49.49-5.26,5.68-12.31,6.14-1,0-6,.12-9.55-1.32-.21-.16,10.08,2.24,18-3.64,0,.06-5.63,3.69-14.83,2.53-1.15-.21-7.62-1.75-8.48-7.29a6.55,6.55,0,0,1,2.82-6.2,5.12,5.12,0,0,1,4.06-.47c.54.12-.82-1.89-3-2.51a10.54,10.54,0,0,0-6,.91c-.49.16-4.41,2.1-4.9-1.89,0-.78.08-5.52,2.1-8.85A28.55,28.55,0,0,1,61.3,93.22Z"
     transform="translate(-48.73 -82.87)"
     fill="#008ccf"
     id="path62" />
</svg>
